<mxfile host="app.diagrams.net" modified="2024-02-25T12:35:17.793Z" agent="Mozilla/5.0 (Windows NT 10.0; Win64; x64) AppleWebKit/537.36 (KHTML, like Gecko) Chrome/122.0.0.0 Safari/537.36" etag="BocSC6ZGhHqSQRM6-dfO" version="23.1.6" type="github">
  <diagram name="Page-1" id="nqy8MYTfZK-IS5IxkyHg">
    <mxGraphModel dx="1665" dy="1582" grid="1" gridSize="10" guides="1" tooltips="1" connect="1" arrows="1" fold="1" page="1" pageScale="1" pageWidth="827" pageHeight="1169" math="0" shadow="0">
      <root>
        <mxCell id="0" />
        <mxCell id="1" parent="0" />
        <mxCell id="Rp_q8d3P8gBAkOt-X-FX-1" value="DPR" style="whiteSpace=wrap;html=1;align=center;" parent="1" vertex="1">
          <mxGeometry x="351.5" y="110" width="100" height="40" as="geometry" />
        </mxCell>
        <mxCell id="Rp_q8d3P8gBAkOt-X-FX-2" value="DPRD" style="whiteSpace=wrap;html=1;align=center;" parent="1" vertex="1">
          <mxGeometry x="490" y="110" width="100" height="40" as="geometry" />
        </mxCell>
        <mxCell id="Rp_q8d3P8gBAkOt-X-FX-3" value="DPD" style="whiteSpace=wrap;html=1;align=center;" parent="1" vertex="1">
          <mxGeometry x="620" y="110" width="100" height="40" as="geometry" />
        </mxCell>
        <mxCell id="Rp_q8d3P8gBAkOt-X-FX-4" value="Calon Presiden" style="whiteSpace=wrap;html=1;align=center;" parent="1" vertex="1">
          <mxGeometry y="110" width="100" height="40" as="geometry" />
        </mxCell>
        <mxCell id="Rp_q8d3P8gBAkOt-X-FX-5" value="Calon Wakil Presiden" style="whiteSpace=wrap;html=1;align=center;" parent="1" vertex="1">
          <mxGeometry x="210" y="110" width="100" height="40" as="geometry" />
        </mxCell>
        <mxCell id="InDd5PstnEUt9IAhVS5L-17" style="edgeStyle=orthogonalEdgeStyle;rounded=0;orthogonalLoop=1;jettySize=auto;html=1;" edge="1" parent="1" source="06MVGboHxHlyO1YCg4qo-1" target="Rp_q8d3P8gBAkOt-X-FX-4">
          <mxGeometry relative="1" as="geometry">
            <Array as="points">
              <mxPoint x="160" y="70" />
              <mxPoint x="50" y="70" />
            </Array>
          </mxGeometry>
        </mxCell>
        <mxCell id="InDd5PstnEUt9IAhVS5L-18" style="edgeStyle=orthogonalEdgeStyle;rounded=0;orthogonalLoop=1;jettySize=auto;html=1;" edge="1" parent="1" source="06MVGboHxHlyO1YCg4qo-1" target="Rp_q8d3P8gBAkOt-X-FX-5">
          <mxGeometry relative="1" as="geometry">
            <Array as="points">
              <mxPoint x="150" y="80" />
              <mxPoint x="260" y="80" />
            </Array>
          </mxGeometry>
        </mxCell>
        <mxCell id="06MVGboHxHlyO1YCg4qo-1" value="Calon kandidat eksekutif" style="whiteSpace=wrap;html=1;align=center;" parent="1" vertex="1">
          <mxGeometry x="110" y="-10" width="100" height="40" as="geometry" />
        </mxCell>
        <mxCell id="InDd5PstnEUt9IAhVS5L-21" style="edgeStyle=orthogonalEdgeStyle;rounded=0;orthogonalLoop=1;jettySize=auto;html=1;" edge="1" parent="1" source="06MVGboHxHlyO1YCg4qo-2" target="Rp_q8d3P8gBAkOt-X-FX-1">
          <mxGeometry relative="1" as="geometry">
            <Array as="points">
              <mxPoint x="570" y="50" />
              <mxPoint x="402" y="50" />
            </Array>
          </mxGeometry>
        </mxCell>
        <mxCell id="InDd5PstnEUt9IAhVS5L-22" style="edgeStyle=orthogonalEdgeStyle;rounded=0;orthogonalLoop=1;jettySize=auto;html=1;" edge="1" parent="1" source="06MVGboHxHlyO1YCg4qo-2" target="Rp_q8d3P8gBAkOt-X-FX-3">
          <mxGeometry relative="1" as="geometry" />
        </mxCell>
        <mxCell id="InDd5PstnEUt9IAhVS5L-23" style="edgeStyle=orthogonalEdgeStyle;rounded=0;orthogonalLoop=1;jettySize=auto;html=1;" edge="1" parent="1" source="06MVGboHxHlyO1YCg4qo-2" target="Rp_q8d3P8gBAkOt-X-FX-2">
          <mxGeometry relative="1" as="geometry" />
        </mxCell>
        <mxCell id="06MVGboHxHlyO1YCg4qo-2" value="Calon kandidat legislatif" style="whiteSpace=wrap;html=1;align=center;" parent="1" vertex="1">
          <mxGeometry x="540" y="-10" width="100" height="40" as="geometry" />
        </mxCell>
        <mxCell id="06MVGboHxHlyO1YCg4qo-3" value="Dapil" style="whiteSpace=wrap;html=1;align=center;" parent="1" vertex="1">
          <mxGeometry x="926" y="570" width="100" height="40" as="geometry" />
        </mxCell>
        <mxCell id="06MVGboHxHlyO1YCg4qo-10" value="" style="group" parent="1" vertex="1" connectable="0">
          <mxGeometry x="-560" y="50" width="250" height="120" as="geometry" />
        </mxCell>
        <mxCell id="06MVGboHxHlyO1YCg4qo-4" value="Partai Politik" style="whiteSpace=wrap;html=1;align=center;" parent="06MVGboHxHlyO1YCg4qo-10" vertex="1">
          <mxGeometry x="70" y="80" width="100" height="40" as="geometry" />
        </mxCell>
        <mxCell id="06MVGboHxHlyO1YCg4qo-90" style="edgeStyle=orthogonalEdgeStyle;rounded=0;orthogonalLoop=1;jettySize=auto;html=1;" parent="06MVGboHxHlyO1YCg4qo-10" source="06MVGboHxHlyO1YCg4qo-6" target="06MVGboHxHlyO1YCg4qo-4" edge="1">
          <mxGeometry relative="1" as="geometry" />
        </mxCell>
        <mxCell id="06MVGboHxHlyO1YCg4qo-6" value="&lt;u&gt;Nomor urut&lt;/u&gt;" style="ellipse;whiteSpace=wrap;html=1;align=center;" parent="06MVGboHxHlyO1YCg4qo-10" vertex="1">
          <mxGeometry width="100" height="40" as="geometry" />
        </mxCell>
        <mxCell id="06MVGboHxHlyO1YCg4qo-7" value="&lt;u&gt;Nama&lt;/u&gt;" style="ellipse;whiteSpace=wrap;html=1;align=center;" parent="06MVGboHxHlyO1YCg4qo-10" vertex="1">
          <mxGeometry x="150" width="100" height="40" as="geometry" />
        </mxCell>
        <mxCell id="06MVGboHxHlyO1YCg4qo-8" style="edgeStyle=orthogonalEdgeStyle;rounded=0;orthogonalLoop=1;jettySize=auto;html=1;entryX=0.5;entryY=0;entryDx=0;entryDy=0;" parent="06MVGboHxHlyO1YCg4qo-10" source="06MVGboHxHlyO1YCg4qo-7" target="06MVGboHxHlyO1YCg4qo-4" edge="1">
          <mxGeometry relative="1" as="geometry" />
        </mxCell>
        <mxCell id="06MVGboHxHlyO1YCg4qo-22" value="DPP" style="whiteSpace=wrap;html=1;align=center;" parent="1" vertex="1">
          <mxGeometry x="870" y="370" width="100" height="40" as="geometry" />
        </mxCell>
        <mxCell id="06MVGboHxHlyO1YCg4qo-24" value="DPW" style="whiteSpace=wrap;html=1;align=center;" parent="1" vertex="1">
          <mxGeometry x="1016" y="370" width="100" height="40" as="geometry" />
        </mxCell>
        <mxCell id="06MVGboHxHlyO1YCg4qo-26" style="edgeStyle=orthogonalEdgeStyle;rounded=0;orthogonalLoop=1;jettySize=auto;html=1;entryX=0.5;entryY=0;entryDx=0;entryDy=0;" parent="1" source="06MVGboHxHlyO1YCg4qo-25" target="06MVGboHxHlyO1YCg4qo-24" edge="1">
          <mxGeometry relative="1" as="geometry" />
        </mxCell>
        <mxCell id="06MVGboHxHlyO1YCg4qo-27" style="edgeStyle=orthogonalEdgeStyle;rounded=0;orthogonalLoop=1;jettySize=auto;html=1;entryX=0.5;entryY=0;entryDx=0;entryDy=0;" parent="1" source="06MVGboHxHlyO1YCg4qo-25" target="06MVGboHxHlyO1YCg4qo-22" edge="1">
          <mxGeometry relative="1" as="geometry" />
        </mxCell>
        <mxCell id="06MVGboHxHlyO1YCg4qo-25" value="Alamat" style="ellipse;whiteSpace=wrap;html=1;align=center;" parent="1" vertex="1">
          <mxGeometry x="946" y="290" width="100" height="40" as="geometry" />
        </mxCell>
        <mxCell id="06MVGboHxHlyO1YCg4qo-28" value="KPU" style="whiteSpace=wrap;html=1;align=center;" parent="1" vertex="1">
          <mxGeometry x="-180" y="130" width="100" height="40" as="geometry" />
        </mxCell>
        <mxCell id="06MVGboHxHlyO1YCg4qo-74" value="" style="group" parent="1" vertex="1" connectable="0">
          <mxGeometry x="-90" y="-170" width="260" height="130" as="geometry" />
        </mxCell>
        <mxCell id="06MVGboHxHlyO1YCg4qo-68" value="SKCK" style="ellipse;whiteSpace=wrap;html=1;align=center;" parent="06MVGboHxHlyO1YCg4qo-74" vertex="1">
          <mxGeometry x="60" y="90" width="100" height="40" as="geometry" />
        </mxCell>
        <mxCell id="06MVGboHxHlyO1YCg4qo-70" value="tanggal akhir masa berlaku" style="ellipse;whiteSpace=wrap;html=1;align=center;" parent="06MVGboHxHlyO1YCg4qo-74" vertex="1">
          <mxGeometry x="160" width="100" height="40" as="geometry" />
        </mxCell>
        <mxCell id="06MVGboHxHlyO1YCg4qo-69" value="nomor SKCK" style="ellipse;whiteSpace=wrap;html=1;align=center;" parent="06MVGboHxHlyO1YCg4qo-74" vertex="1">
          <mxGeometry width="100" height="40" as="geometry" />
        </mxCell>
        <mxCell id="06MVGboHxHlyO1YCg4qo-72" style="rounded=0;orthogonalLoop=1;jettySize=auto;html=1;" parent="06MVGboHxHlyO1YCg4qo-74" source="06MVGboHxHlyO1YCg4qo-70" target="06MVGboHxHlyO1YCg4qo-68" edge="1">
          <mxGeometry relative="1" as="geometry" />
        </mxCell>
        <mxCell id="06MVGboHxHlyO1YCg4qo-71" style="rounded=0;orthogonalLoop=1;jettySize=auto;html=1;" parent="06MVGboHxHlyO1YCg4qo-74" source="06MVGboHxHlyO1YCg4qo-69" target="06MVGboHxHlyO1YCg4qo-68" edge="1">
          <mxGeometry relative="1" as="geometry" />
        </mxCell>
        <mxCell id="06MVGboHxHlyO1YCg4qo-75" style="rounded=0;orthogonalLoop=1;jettySize=auto;html=1;entryX=0;entryY=0.5;entryDx=0;entryDy=0;" parent="1" source="06MVGboHxHlyO1YCg4qo-68" target="06MVGboHxHlyO1YCg4qo-1" edge="1">
          <mxGeometry relative="1" as="geometry" />
        </mxCell>
        <mxCell id="06MVGboHxHlyO1YCg4qo-79" value="Paslon" style="whiteSpace=wrap;html=1;align=center;" parent="1" vertex="1">
          <mxGeometry x="-260" width="100" height="40" as="geometry" />
        </mxCell>
        <mxCell id="06MVGboHxHlyO1YCg4qo-88" style="edgeStyle=orthogonalEdgeStyle;rounded=0;orthogonalLoop=1;jettySize=auto;html=1;entryX=0.5;entryY=0;entryDx=0;entryDy=0;" parent="1" source="06MVGboHxHlyO1YCg4qo-81" target="06MVGboHxHlyO1YCg4qo-79" edge="1">
          <mxGeometry relative="1" as="geometry" />
        </mxCell>
        <mxCell id="06MVGboHxHlyO1YCg4qo-81" value="&lt;u&gt;nomor urut&lt;/u&gt;" style="ellipse;whiteSpace=wrap;html=1;align=center;" parent="1" vertex="1">
          <mxGeometry x="-330" y="-90" width="100" height="40" as="geometry" />
        </mxCell>
        <mxCell id="06MVGboHxHlyO1YCg4qo-87" style="edgeStyle=orthogonalEdgeStyle;rounded=0;orthogonalLoop=1;jettySize=auto;html=1;entryX=0.5;entryY=0;entryDx=0;entryDy=0;" parent="1" source="06MVGboHxHlyO1YCg4qo-82" target="06MVGboHxHlyO1YCg4qo-79" edge="1">
          <mxGeometry relative="1" as="geometry" />
        </mxCell>
        <mxCell id="06MVGboHxHlyO1YCg4qo-82" value="Visi" style="ellipse;whiteSpace=wrap;html=1;align=center;" parent="1" vertex="1">
          <mxGeometry x="-190" y="-90" width="100" height="40" as="geometry" />
        </mxCell>
        <mxCell id="06MVGboHxHlyO1YCg4qo-89" style="edgeStyle=orthogonalEdgeStyle;rounded=0;orthogonalLoop=1;jettySize=auto;html=1;" parent="1" source="06MVGboHxHlyO1YCg4qo-83" target="06MVGboHxHlyO1YCg4qo-79" edge="1">
          <mxGeometry relative="1" as="geometry">
            <Array as="points">
              <mxPoint x="-420" y="-20" />
              <mxPoint x="-220" y="-20" />
              <mxPoint x="-220" y="-30" />
              <mxPoint x="-210" y="-30" />
            </Array>
          </mxGeometry>
        </mxCell>
        <mxCell id="06MVGboHxHlyO1YCg4qo-83" value="gagasan" style="ellipse;whiteSpace=wrap;html=1;align=center;" parent="1" vertex="1">
          <mxGeometry x="-470" y="-90" width="100" height="40" as="geometry" />
        </mxCell>
        <mxCell id="06MVGboHxHlyO1YCg4qo-95" style="edgeStyle=orthogonalEdgeStyle;rounded=0;orthogonalLoop=1;jettySize=auto;html=1;curved=0;strokeColor=none;" parent="1" source="06MVGboHxHlyO1YCg4qo-91" target="Rp_q8d3P8gBAkOt-X-FX-2" edge="1">
          <mxGeometry relative="1" as="geometry">
            <Array as="points">
              <mxPoint x="382" y="80" />
              <mxPoint x="540" y="80" />
            </Array>
          </mxGeometry>
        </mxCell>
        <mxCell id="InDd5PstnEUt9IAhVS5L-24" style="rounded=0;orthogonalLoop=1;jettySize=auto;html=1;" edge="1" parent="1" source="06MVGboHxHlyO1YCg4qo-91" target="Rp_q8d3P8gBAkOt-X-FX-1">
          <mxGeometry relative="1" as="geometry" />
        </mxCell>
        <mxCell id="06MVGboHxHlyO1YCg4qo-91" value="Surat keterangan anggota partai politik" style="ellipse;whiteSpace=wrap;html=1;align=center;" parent="1" vertex="1">
          <mxGeometry x="275.5" y="200" width="117" height="60" as="geometry" />
        </mxCell>
        <mxCell id="06MVGboHxHlyO1YCg4qo-98" style="rounded=0;orthogonalLoop=1;jettySize=auto;html=1;endArrow=none;endFill=0;" parent="1" source="06MVGboHxHlyO1YCg4qo-97" target="06MVGboHxHlyO1YCg4qo-2" edge="1">
          <mxGeometry relative="1" as="geometry" />
        </mxCell>
        <mxCell id="06MVGboHxHlyO1YCg4qo-97" value="Visi" style="ellipse;whiteSpace=wrap;html=1;align=center;" parent="1" vertex="1">
          <mxGeometry x="737" y="-10" width="100" height="40" as="geometry" />
        </mxCell>
        <mxCell id="06MVGboHxHlyO1YCg4qo-102" style="rounded=0;orthogonalLoop=1;jettySize=auto;html=1;endArrow=none;endFill=0;" parent="1" source="06MVGboHxHlyO1YCg4qo-99" target="06MVGboHxHlyO1YCg4qo-2" edge="1">
          <mxGeometry relative="1" as="geometry" />
        </mxCell>
        <mxCell id="06MVGboHxHlyO1YCg4qo-99" value="Misi" style="ellipse;whiteSpace=wrap;html=1;align=center;" parent="1" vertex="1">
          <mxGeometry x="727" y="-120" width="100" height="40" as="geometry" />
        </mxCell>
        <mxCell id="06MVGboHxHlyO1YCg4qo-101" style="rounded=0;orthogonalLoop=1;jettySize=auto;html=1;endArrow=none;endFill=0;" parent="1" source="06MVGboHxHlyO1YCg4qo-100" target="06MVGboHxHlyO1YCg4qo-2" edge="1">
          <mxGeometry relative="1" as="geometry" />
        </mxCell>
        <mxCell id="06MVGboHxHlyO1YCg4qo-100" value="gagasan" style="ellipse;whiteSpace=wrap;html=1;align=center;" parent="1" vertex="1">
          <mxGeometry x="727" y="-80" width="100" height="40" as="geometry" />
        </mxCell>
        <mxCell id="06MVGboHxHlyO1YCg4qo-106" style="edgeStyle=orthogonalEdgeStyle;rounded=0;orthogonalLoop=1;jettySize=auto;html=1;" parent="1" source="06MVGboHxHlyO1YCg4qo-103" target="06MVGboHxHlyO1YCg4qo-3" edge="1">
          <mxGeometry relative="1" as="geometry" />
        </mxCell>
        <mxCell id="06MVGboHxHlyO1YCg4qo-103" value="&lt;u&gt;kode&lt;/u&gt;" style="ellipse;whiteSpace=wrap;html=1;align=center;" parent="1" vertex="1">
          <mxGeometry x="856" y="490" width="100" height="40" as="geometry" />
        </mxCell>
        <mxCell id="06MVGboHxHlyO1YCg4qo-107" style="edgeStyle=orthogonalEdgeStyle;rounded=0;orthogonalLoop=1;jettySize=auto;html=1;" parent="1" source="06MVGboHxHlyO1YCg4qo-105" target="06MVGboHxHlyO1YCg4qo-3" edge="1">
          <mxGeometry relative="1" as="geometry" />
        </mxCell>
        <mxCell id="06MVGboHxHlyO1YCg4qo-105" value="nama provinsi" style="ellipse;whiteSpace=wrap;html=1;align=center;" parent="1" vertex="1">
          <mxGeometry x="1016" y="490" width="100" height="40" as="geometry" />
        </mxCell>
        <mxCell id="06MVGboHxHlyO1YCg4qo-109" style="edgeStyle=orthogonalEdgeStyle;rounded=0;orthogonalLoop=1;jettySize=auto;html=1;" parent="1" source="06MVGboHxHlyO1YCg4qo-108" target="Rp_q8d3P8gBAkOt-X-FX-3" edge="1">
          <mxGeometry relative="1" as="geometry" />
        </mxCell>
        <mxCell id="06MVGboHxHlyO1YCg4qo-108" value="&lt;u&gt;Nomor urut&lt;/u&gt;" style="ellipse;whiteSpace=wrap;html=1;align=center;" parent="1" vertex="1">
          <mxGeometry x="770" y="110" width="100" height="40" as="geometry" />
        </mxCell>
        <mxCell id="06MVGboHxHlyO1YCg4qo-110" value="Pemilih" style="whiteSpace=wrap;html=1;align=center;" parent="1" vertex="1">
          <mxGeometry x="160" y="340" width="100" height="40" as="geometry" />
        </mxCell>
        <mxCell id="06MVGboHxHlyO1YCg4qo-120" style="edgeStyle=orthogonalEdgeStyle;rounded=0;orthogonalLoop=1;jettySize=auto;html=1;" parent="1" source="06MVGboHxHlyO1YCg4qo-112" target="06MVGboHxHlyO1YCg4qo-110" edge="1">
          <mxGeometry relative="1" as="geometry">
            <Array as="points">
              <mxPoint x="70" y="250" />
              <mxPoint x="70" y="360" />
            </Array>
          </mxGeometry>
        </mxCell>
        <mxCell id="06MVGboHxHlyO1YCg4qo-112" value="Status WNI" style="ellipse;whiteSpace=wrap;html=1;align=center;" parent="1" vertex="1">
          <mxGeometry x="-130" y="230" width="100" height="40" as="geometry" />
        </mxCell>
        <mxCell id="06MVGboHxHlyO1YCg4qo-121" style="edgeStyle=orthogonalEdgeStyle;rounded=0;orthogonalLoop=1;jettySize=auto;html=1;" parent="1" source="06MVGboHxHlyO1YCg4qo-113" target="06MVGboHxHlyO1YCg4qo-110" edge="1">
          <mxGeometry relative="1" as="geometry" />
        </mxCell>
        <mxCell id="06MVGboHxHlyO1YCg4qo-113" value="KTP" style="ellipse;whiteSpace=wrap;html=1;align=center;" parent="1" vertex="1">
          <mxGeometry x="-130" y="300" width="100" height="40" as="geometry" />
        </mxCell>
        <mxCell id="06MVGboHxHlyO1YCg4qo-122" style="edgeStyle=orthogonalEdgeStyle;rounded=0;orthogonalLoop=1;jettySize=auto;html=1;" parent="1" source="06MVGboHxHlyO1YCg4qo-115" target="06MVGboHxHlyO1YCg4qo-110" edge="1">
          <mxGeometry relative="1" as="geometry" />
        </mxCell>
        <mxCell id="06MVGboHxHlyO1YCg4qo-115" value="Umur" style="ellipse;whiteSpace=wrap;html=1;align=center;dashed=1;" parent="1" vertex="1">
          <mxGeometry x="-120" y="380" width="100" height="40" as="geometry" />
        </mxCell>
        <mxCell id="06MVGboHxHlyO1YCg4qo-123" style="edgeStyle=orthogonalEdgeStyle;rounded=0;orthogonalLoop=1;jettySize=auto;html=1;" parent="1" source="06MVGboHxHlyO1YCg4qo-119" target="06MVGboHxHlyO1YCg4qo-110" edge="1">
          <mxGeometry relative="1" as="geometry">
            <Array as="points">
              <mxPoint x="70" y="480" />
              <mxPoint x="70" y="360" />
            </Array>
          </mxGeometry>
        </mxCell>
        <mxCell id="06MVGboHxHlyO1YCg4qo-119" value="Status pernikahan" style="ellipse;whiteSpace=wrap;html=1;align=center;dashed=1;" parent="1" vertex="1">
          <mxGeometry x="-120" y="460" width="100" height="40" as="geometry" />
        </mxCell>
        <mxCell id="06MVGboHxHlyO1YCg4qo-124" value="&amp;nbsp;Nama lengkap" style="ellipse;whiteSpace=wrap;html=1;align=center;" parent="1" vertex="1">
          <mxGeometry x="-110" y="540" width="100" height="40" as="geometry" />
        </mxCell>
        <mxCell id="06MVGboHxHlyO1YCg4qo-126" value="Alamat rumah" style="ellipse;whiteSpace=wrap;html=1;align=center;" parent="1" vertex="1">
          <mxGeometry x="-100" y="620" width="100" height="40" as="geometry" />
        </mxCell>
        <mxCell id="06MVGboHxHlyO1YCg4qo-127" value="&lt;u&gt;NIK&lt;/u&gt;" style="ellipse;whiteSpace=wrap;html=1;align=center;" parent="1" vertex="1">
          <mxGeometry x="70" y="520" width="100" height="40" as="geometry" />
        </mxCell>
        <mxCell id="06MVGboHxHlyO1YCg4qo-130" value="status perkawinan" style="ellipse;whiteSpace=wrap;html=1;align=center;" parent="1" vertex="1">
          <mxGeometry x="60" y="610" width="100" height="40" as="geometry" />
        </mxCell>
        <mxCell id="06MVGboHxHlyO1YCg4qo-133" value="tempat tanggal lahir" style="ellipse;whiteSpace=wrap;html=1;align=center;" parent="1" vertex="1">
          <mxGeometry x="214" y="610" width="100" height="40" as="geometry" />
        </mxCell>
        <mxCell id="06MVGboHxHlyO1YCg4qo-134" value="Pekerjaan" style="ellipse;whiteSpace=wrap;html=1;align=center;" parent="1" vertex="1">
          <mxGeometry x="200" y="540" width="100" height="40" as="geometry" />
        </mxCell>
        <mxCell id="06MVGboHxHlyO1YCg4qo-135" value="TPS" style="whiteSpace=wrap;html=1;align=center;" parent="1" vertex="1">
          <mxGeometry x="570" y="500" width="100" height="40" as="geometry" />
        </mxCell>
        <mxCell id="06MVGboHxHlyO1YCg4qo-136" value="Nomor urut" style="ellipse;whiteSpace=wrap;html=1;align=center;" parent="1" vertex="1">
          <mxGeometry x="640" y="430" width="100" height="40" as="geometry" />
        </mxCell>
        <mxCell id="06MVGboHxHlyO1YCg4qo-137" value="Alamat" style="ellipse;whiteSpace=wrap;html=1;align=center;" parent="1" vertex="1">
          <mxGeometry x="510" y="440" width="100" height="40" as="geometry" />
        </mxCell>
        <mxCell id="InDd5PstnEUt9IAhVS5L-10" value="&lt;font style=&quot;font-size: 20px;&quot;&gt;d&lt;/font&gt;" style="ellipse;whiteSpace=wrap;html=1;aspect=fixed;" vertex="1" parent="1">
          <mxGeometry x="1140" y="140" width="40" height="40" as="geometry" />
        </mxCell>
        <mxCell id="InDd5PstnEUt9IAhVS5L-11" value="&lt;font style=&quot;font-size: 20px;&quot;&gt;U&lt;/font&gt;" style="ellipse;whiteSpace=wrap;html=1;aspect=fixed;" vertex="1" parent="1">
          <mxGeometry x="1170" y="60" width="40" height="40" as="geometry" />
        </mxCell>
        <mxCell id="InDd5PstnEUt9IAhVS5L-13" value="&lt;font style=&quot;font-size: 20px;&quot;&gt;O&lt;/font&gt;" style="ellipse;whiteSpace=wrap;html=1;aspect=fixed;" vertex="1" parent="1">
          <mxGeometry x="1080" y="70" width="40" height="40" as="geometry" />
        </mxCell>
        <mxCell id="InDd5PstnEUt9IAhVS5L-39" style="rounded=0;orthogonalLoop=1;jettySize=auto;html=1;endArrow=none;endFill=0;shape=link;" edge="1" parent="1" source="06MVGboHxHlyO1YCg4qo-29" target="InDd5PstnEUt9IAhVS5L-38">
          <mxGeometry relative="1" as="geometry" />
        </mxCell>
        <mxCell id="06MVGboHxHlyO1YCg4qo-29" value="Kandidat" style="whiteSpace=wrap;html=1;align=center;" parent="1" vertex="1">
          <mxGeometry x="314" y="-320" width="100" height="40" as="geometry" />
        </mxCell>
        <mxCell id="06MVGboHxHlyO1YCg4qo-30" value="Nama lengkap" style="ellipse;whiteSpace=wrap;html=1;align=center;" parent="1" vertex="1">
          <mxGeometry x="214" y="-460" width="100" height="40" as="geometry" />
        </mxCell>
        <mxCell id="06MVGboHxHlyO1YCg4qo-31" value="tempat tanggal lahir" style="ellipse;whiteSpace=wrap;html=1;align=center;" parent="1" vertex="1">
          <mxGeometry x="340" y="-460" width="100" height="40" as="geometry" />
        </mxCell>
        <mxCell id="06MVGboHxHlyO1YCg4qo-32" value="Alamat rumah" style="ellipse;whiteSpace=wrap;html=1;align=center;" parent="1" vertex="1">
          <mxGeometry x="451.5" y="-470" width="100" height="40" as="geometry" />
        </mxCell>
        <mxCell id="06MVGboHxHlyO1YCg4qo-33" value="&lt;u&gt;NIK&lt;/u&gt;" style="ellipse;whiteSpace=wrap;html=1;align=center;" parent="1" vertex="1">
          <mxGeometry x="590" y="-460" width="100" height="40" as="geometry" />
        </mxCell>
        <mxCell id="06MVGboHxHlyO1YCg4qo-35" value="status perkawinan" style="ellipse;whiteSpace=wrap;html=1;align=center;" parent="1" vertex="1">
          <mxGeometry x="720" y="-460" width="100" height="40" as="geometry" />
        </mxCell>
        <mxCell id="06MVGboHxHlyO1YCg4qo-54" value="" style="group" parent="1" vertex="1" connectable="0">
          <mxGeometry x="132.5" y="-664" width="463" height="160" as="geometry" />
        </mxCell>
        <mxCell id="06MVGboHxHlyO1YCg4qo-36" value="riwayat pekerjaan" style="ellipse;whiteSpace=wrap;html=1;align=center;" parent="06MVGboHxHlyO1YCg4qo-54" vertex="1">
          <mxGeometry x="113" y="120" width="100" height="40" as="geometry" />
        </mxCell>
        <mxCell id="06MVGboHxHlyO1YCg4qo-43" style="rounded=0;orthogonalLoop=1;jettySize=auto;html=1;entryX=0.5;entryY=0;entryDx=0;entryDy=0;" parent="06MVGboHxHlyO1YCg4qo-54" source="06MVGboHxHlyO1YCg4qo-39" target="06MVGboHxHlyO1YCg4qo-36" edge="1">
          <mxGeometry relative="1" as="geometry" />
        </mxCell>
        <mxCell id="06MVGboHxHlyO1YCg4qo-39" value="Nama tempat kerja" style="ellipse;whiteSpace=wrap;html=1;align=center;" parent="06MVGboHxHlyO1YCg4qo-54" vertex="1">
          <mxGeometry width="100" height="40" as="geometry" />
        </mxCell>
        <mxCell id="06MVGboHxHlyO1YCg4qo-51" style="rounded=0;orthogonalLoop=1;jettySize=auto;html=1;" parent="06MVGboHxHlyO1YCg4qo-54" source="06MVGboHxHlyO1YCg4qo-40" target="06MVGboHxHlyO1YCg4qo-36" edge="1">
          <mxGeometry relative="1" as="geometry" />
        </mxCell>
        <mxCell id="06MVGboHxHlyO1YCg4qo-40" value="jabatan" style="ellipse;whiteSpace=wrap;html=1;align=center;" parent="06MVGboHxHlyO1YCg4qo-54" vertex="1">
          <mxGeometry x="123" width="100" height="40" as="geometry" />
        </mxCell>
        <mxCell id="06MVGboHxHlyO1YCg4qo-46" style="rounded=0;orthogonalLoop=1;jettySize=auto;html=1;" parent="06MVGboHxHlyO1YCg4qo-54" source="06MVGboHxHlyO1YCg4qo-41" target="06MVGboHxHlyO1YCg4qo-36" edge="1">
          <mxGeometry relative="1" as="geometry" />
        </mxCell>
        <mxCell id="06MVGboHxHlyO1YCg4qo-41" value="Awal tahun kerja" style="ellipse;whiteSpace=wrap;html=1;align=center;" parent="06MVGboHxHlyO1YCg4qo-54" vertex="1">
          <mxGeometry x="233" width="100" height="40" as="geometry" />
        </mxCell>
        <mxCell id="06MVGboHxHlyO1YCg4qo-49" style="rounded=0;orthogonalLoop=1;jettySize=auto;html=1;" parent="06MVGboHxHlyO1YCg4qo-54" source="06MVGboHxHlyO1YCg4qo-42" target="06MVGboHxHlyO1YCg4qo-36" edge="1">
          <mxGeometry relative="1" as="geometry" />
        </mxCell>
        <mxCell id="06MVGboHxHlyO1YCg4qo-42" value="Akhir tahun kerja" style="ellipse;whiteSpace=wrap;html=1;align=center;" parent="06MVGboHxHlyO1YCg4qo-54" vertex="1">
          <mxGeometry x="363" width="100" height="40" as="geometry" />
        </mxCell>
        <mxCell id="06MVGboHxHlyO1YCg4qo-62" value="" style="group" parent="1" vertex="1" connectable="0">
          <mxGeometry x="608" y="-664" width="348" height="130" as="geometry" />
        </mxCell>
        <mxCell id="06MVGboHxHlyO1YCg4qo-37" value="riwayat pendidikan" style="ellipse;whiteSpace=wrap;html=1;align=center;" parent="06MVGboHxHlyO1YCg4qo-62" vertex="1">
          <mxGeometry x="78" y="90" width="100" height="40" as="geometry" />
        </mxCell>
        <mxCell id="06MVGboHxHlyO1YCg4qo-58" style="edgeStyle=orthogonalEdgeStyle;rounded=0;orthogonalLoop=1;jettySize=auto;html=1;" parent="06MVGboHxHlyO1YCg4qo-62" source="06MVGboHxHlyO1YCg4qo-55" target="06MVGboHxHlyO1YCg4qo-37" edge="1">
          <mxGeometry relative="1" as="geometry" />
        </mxCell>
        <mxCell id="06MVGboHxHlyO1YCg4qo-55" value="Nama sekolah atau perguruan tinggi" style="ellipse;whiteSpace=wrap;html=1;align=center;" parent="06MVGboHxHlyO1YCg4qo-62" vertex="1">
          <mxGeometry width="100" height="40" as="geometry" />
        </mxCell>
        <mxCell id="06MVGboHxHlyO1YCg4qo-59" style="edgeStyle=orthogonalEdgeStyle;rounded=0;orthogonalLoop=1;jettySize=auto;html=1;" parent="06MVGboHxHlyO1YCg4qo-62" source="06MVGboHxHlyO1YCg4qo-56" target="06MVGboHxHlyO1YCg4qo-37" edge="1">
          <mxGeometry relative="1" as="geometry" />
        </mxCell>
        <mxCell id="06MVGboHxHlyO1YCg4qo-56" value="jenjang" style="ellipse;whiteSpace=wrap;html=1;align=center;" parent="06MVGboHxHlyO1YCg4qo-62" vertex="1">
          <mxGeometry x="128" width="100" height="40" as="geometry" />
        </mxCell>
        <mxCell id="06MVGboHxHlyO1YCg4qo-60" style="edgeStyle=orthogonalEdgeStyle;rounded=0;orthogonalLoop=1;jettySize=auto;html=1;" parent="06MVGboHxHlyO1YCg4qo-62" source="06MVGboHxHlyO1YCg4qo-57" target="06MVGboHxHlyO1YCg4qo-37" edge="1">
          <mxGeometry relative="1" as="geometry">
            <Array as="points">
              <mxPoint x="298" y="70" />
              <mxPoint x="128" y="70" />
            </Array>
          </mxGeometry>
        </mxCell>
        <mxCell id="06MVGboHxHlyO1YCg4qo-57" value="tahun kelulusan" style="ellipse;whiteSpace=wrap;html=1;align=center;" parent="06MVGboHxHlyO1YCg4qo-62" vertex="1">
          <mxGeometry x="248" width="100" height="40" as="geometry" />
        </mxCell>
        <mxCell id="06MVGboHxHlyO1YCg4qo-66" value="" style="group" parent="1" vertex="1" connectable="0">
          <mxGeometry x="846" y="-520" width="100" height="110" as="geometry" />
        </mxCell>
        <mxCell id="06MVGboHxHlyO1YCg4qo-38" value="LHKPN" style="ellipse;whiteSpace=wrap;html=1;align=center;" parent="06MVGboHxHlyO1YCg4qo-66" vertex="1">
          <mxGeometry y="70" width="100" height="40" as="geometry" />
        </mxCell>
        <mxCell id="06MVGboHxHlyO1YCg4qo-63" value="nomor dari KPK" style="ellipse;whiteSpace=wrap;html=1;align=center;" parent="06MVGboHxHlyO1YCg4qo-66" vertex="1">
          <mxGeometry width="100" height="40" as="geometry" />
        </mxCell>
        <mxCell id="06MVGboHxHlyO1YCg4qo-65" style="edgeStyle=orthogonalEdgeStyle;rounded=0;orthogonalLoop=1;jettySize=auto;html=1;" parent="06MVGboHxHlyO1YCg4qo-66" source="06MVGboHxHlyO1YCg4qo-63" target="06MVGboHxHlyO1YCg4qo-38" edge="1">
          <mxGeometry relative="1" as="geometry" />
        </mxCell>
        <mxCell id="InDd5PstnEUt9IAhVS5L-1" style="rounded=0;orthogonalLoop=1;jettySize=auto;html=1;startArrow=none;startFill=0;endArrow=none;endFill=0;" edge="1" parent="1" source="06MVGboHxHlyO1YCg4qo-30" target="06MVGboHxHlyO1YCg4qo-29">
          <mxGeometry relative="1" as="geometry" />
        </mxCell>
        <mxCell id="InDd5PstnEUt9IAhVS5L-2" style="rounded=0;orthogonalLoop=1;jettySize=auto;html=1;endArrow=none;endFill=0;" edge="1" parent="1" source="06MVGboHxHlyO1YCg4qo-31" target="06MVGboHxHlyO1YCg4qo-29">
          <mxGeometry relative="1" as="geometry" />
        </mxCell>
        <mxCell id="InDd5PstnEUt9IAhVS5L-3" style="rounded=0;orthogonalLoop=1;jettySize=auto;html=1;" edge="1" parent="1" source="06MVGboHxHlyO1YCg4qo-32" target="06MVGboHxHlyO1YCg4qo-29">
          <mxGeometry relative="1" as="geometry" />
        </mxCell>
        <mxCell id="InDd5PstnEUt9IAhVS5L-4" style="rounded=0;orthogonalLoop=1;jettySize=auto;html=1;" edge="1" parent="1" source="06MVGboHxHlyO1YCg4qo-33" target="06MVGboHxHlyO1YCg4qo-29">
          <mxGeometry relative="1" as="geometry" />
        </mxCell>
        <mxCell id="InDd5PstnEUt9IAhVS5L-6" style="rounded=0;orthogonalLoop=1;jettySize=auto;html=1;" edge="1" parent="1" source="06MVGboHxHlyO1YCg4qo-35" target="06MVGboHxHlyO1YCg4qo-29">
          <mxGeometry relative="1" as="geometry" />
        </mxCell>
        <mxCell id="InDd5PstnEUt9IAhVS5L-7" style="rounded=0;orthogonalLoop=1;jettySize=auto;html=1;" edge="1" parent="1" source="06MVGboHxHlyO1YCg4qo-36" target="06MVGboHxHlyO1YCg4qo-29">
          <mxGeometry relative="1" as="geometry" />
        </mxCell>
        <mxCell id="InDd5PstnEUt9IAhVS5L-8" style="rounded=0;orthogonalLoop=1;jettySize=auto;html=1;" edge="1" parent="1" source="06MVGboHxHlyO1YCg4qo-37" target="06MVGboHxHlyO1YCg4qo-29">
          <mxGeometry relative="1" as="geometry" />
        </mxCell>
        <mxCell id="InDd5PstnEUt9IAhVS5L-31" style="rounded=0;orthogonalLoop=1;jettySize=auto;html=1;" edge="1" parent="1" source="06MVGboHxHlyO1YCg4qo-38" target="06MVGboHxHlyO1YCg4qo-29">
          <mxGeometry relative="1" as="geometry">
            <mxPoint x="950" y="-400" as="targetPoint" />
          </mxGeometry>
        </mxCell>
        <mxCell id="InDd5PstnEUt9IAhVS5L-41" style="rounded=0;orthogonalLoop=1;jettySize=auto;html=1;endArrow=none;endFill=0;startArrow=halfCircle;startFill=0;" edge="1" parent="1" source="InDd5PstnEUt9IAhVS5L-38" target="06MVGboHxHlyO1YCg4qo-2">
          <mxGeometry relative="1" as="geometry">
            <mxPoint x="460" y="-100" as="sourcePoint" />
          </mxGeometry>
        </mxCell>
        <mxCell id="InDd5PstnEUt9IAhVS5L-42" style="rounded=0;orthogonalLoop=1;jettySize=auto;html=1;endArrow=none;endFill=0;startArrow=halfCircle;startFill=0;" edge="1" parent="1" source="InDd5PstnEUt9IAhVS5L-38" target="06MVGboHxHlyO1YCg4qo-1">
          <mxGeometry relative="1" as="geometry" />
        </mxCell>
        <mxCell id="InDd5PstnEUt9IAhVS5L-38" value="&lt;font style=&quot;font-size: 20px;&quot;&gt;d&lt;/font&gt;" style="ellipse;whiteSpace=wrap;html=1;aspect=fixed;" vertex="1" parent="1">
          <mxGeometry x="344" y="-210" width="40" height="40" as="geometry" />
        </mxCell>
      </root>
    </mxGraphModel>
  </diagram>
</mxfile>
